<svg width="207" height="183" xmlns="http://www.w3.org/2000/svg" xmlns:xlink="http://www.w3.org/1999/xlink" xml:space="preserve" overflow="hidden"><defs><clipPath id="clip0"><rect x="617" y="224" width="207" height="183"/></clipPath><linearGradient x1="245.691" y1="557.19" x2="356.805" y2="557.19" gradientUnits="userSpaceOnUse" spreadMethod="pad" id="fill1"><stop offset="0" stop-color="#269AF2"/><stop offset="1" stop-color="#29DDB0"/></linearGradient></defs><g clip-path="url(#clip0)" transform="translate(-617 -224)"><path d="M338.24 479.374C327.229 470.18 313.032 465.708 298.74 466.932 261.491 470.605 240.872 512.001 263.703 546.248L256.396 552.529C245.452 561.897 242.656 577.695 249.72 590.251L279.622 643.576C281.845 647.507 286.834 648.891 290.764 646.668 291.398 646.309 291.982 645.867 292.499 645.354 299.16 638.744 304.109 630.609 306.916 621.654 310.7 609.173 309.408 595.703 303.322 584.168L288.351 555.333 274.21 566.314 288.193 593.332C290.528 597.958 291.54 603.139 291.116 608.303 291.037 612.961 289.859 617.536 287.68 621.654L264.651 579.626C262.273 575.253 263.223 569.819 266.942 566.512L302.492 534.911 301.979 534.398C303.055 534.637 304.155 534.757 305.257 534.753 313.984 534.753 321.057 527.679 321.057 518.953 321.057 510.227 313.984 503.153 305.257 503.153 296.531 503.153 289.457 510.227 289.457 518.953 289.456 520.479 289.682 521.997 290.129 523.456L277.173 534.319C266.743 520.326 269.633 500.527 283.626 490.098 288.634 486.365 294.635 484.201 300.873 483.877 313.294 482.987 325.327 488.424 332.868 498.334 348.945 518.874 335.594 543.68 310.511 559.362 307.186 561.282 305.311 564.986 305.731 568.803 306.238 572.269 308.7 575.131 312.051 576.15 315.503 577.206 319.255 576.365 321.926 573.938L337.371 560.468C345.347 553.576 351.254 544.606 354.435 534.556 361.224 514.587 354.743 492.507 338.24 479.374Z" fill="url(#fill1)" transform="matrix(1 0 0 1 416.443 -242.225)"/><path d="M102.7 659.653C102.7 658.388 103.726 657.362 104.991 657.362L117.592 657.362C119.915 657.351 122.215 657.821 124.347 658.745 126.392 659.612 128.255 660.858 129.837 662.418 131.4 664.006 132.659 665.867 133.55 667.909 134.457 670.03 134.914 672.316 134.893 674.624 134.914 676.918 134.457 679.191 133.55 681.299 132.679 683.352 131.418 685.216 129.837 686.79 126.584 690.022 122.178 691.827 117.592 691.806L107.44 691.806 107.44 702.669C107.463 703.934 106.455 704.977 105.19 704.999 104.549 705.01 103.932 704.753 103.49 704.288 103.057 703.861 102.815 703.277 102.819 702.669ZM107.282 661.944 107.282 687.185 117.592 687.185C119.29 687.213 120.973 686.876 122.53 686.197 123.995 685.543 125.332 684.633 126.48 683.511 127.65 682.387 128.589 681.046 129.245 679.561 129.913 678.029 130.249 676.374 130.232 674.703 130.249 673.019 129.912 671.35 129.245 669.805 127.916 666.775 125.488 664.361 122.451 663.05 120.897 662.357 119.214 662.007 117.513 662.023Z" fill="#032530" transform="matrix(1 0 0 1 416.443 -242.225)"/><path d="M182.372 716.02C182.397 716.644 182.153 717.248 181.701 717.679 180.782 718.513 179.38 718.513 178.462 717.679 178.026 717.237 177.784 716.64 177.79 716.02L177.79 699.153C176.153 700.98 174.165 702.457 171.944 703.498 169.617 704.57 167.08 705.109 164.518 705.078 162.132 705.086 159.768 704.615 157.566 703.696 155.442 702.763 153.523 701.421 151.918 699.746 148.541 696.411 146.66 691.851 146.704 687.106L146.704 671.306C146.68 670.693 146.925 670.102 147.375 669.686 148.248 668.77 149.698 668.734 150.614 669.606 151.078 670.048 151.336 670.665 151.325 671.305L151.325 687.106C151.319 688.882 151.668 690.641 152.352 692.28 153.73 695.387 156.246 697.847 159.383 699.153 161.009 699.834 162.755 700.183 164.518 700.18 166.253 700.196 167.973 699.86 169.574 699.193 171.043 698.527 172.381 697.604 173.524 696.467 174.707 695.336 175.671 693.997 176.368 692.517 177.08 690.948 177.495 689.26 177.593 687.54L177.593 671.148C177.571 669.882 178.578 668.839 179.844 668.817 180.485 668.806 181.101 669.064 181.543 669.528 181.993 669.944 182.238 670.536 182.214 671.148L182.214 715.941Z" fill="#032530" transform="matrix(1 0 0 1 416.443 -242.225)"/><path d="M197.106 671.227C197.084 669.961 198.092 668.918 199.357 668.896 199.998 668.885 200.614 669.143 201.056 669.607 201.506 670.023 201.751 670.614 201.727 671.227L201.727 687.027C201.714 688.807 202.078 690.571 202.794 692.201 203.46 693.78 204.426 695.216 205.638 696.428 206.857 697.631 208.29 698.596 209.864 699.272 213.151 700.641 216.848 700.641 220.134 699.272 221.703 698.586 223.135 697.622 224.361 696.428 225.573 695.216 226.539 693.78 227.205 692.201 227.909 690.568 228.259 688.805 228.232 687.027L228.232 671.227C228.228 670.618 228.47 670.034 228.904 669.607 229.345 669.171 229.942 668.93 230.563 668.935 231.17 668.936 231.753 669.177 232.182 669.607 232.615 670.034 232.858 670.618 232.854 671.227L232.854 687.027C232.87 689.431 232.386 691.812 231.432 694.018 230.489 696.137 229.148 698.054 227.482 699.667 225.876 701.342 223.957 702.684 221.833 703.617 217.382 705.46 212.38 705.46 207.929 703.617 205.798 702.675 203.867 701.334 202.241 699.667 200.572 698.056 199.231 696.138 198.291 694.018 197.336 691.812 196.852 689.431 196.869 687.027Z" fill="#032530" transform="matrix(1 0 0 1 416.443 -242.225)"/><path d="M273.736 677.389C272.485 676.276 271.057 675.382 269.51 674.742 267.896 674.07 266.162 673.734 264.414 673.755 262.651 673.748 260.904 674.098 259.279 674.782 257.705 675.457 256.271 676.422 255.053 677.626 253.832 678.845 252.865 680.295 252.209 681.892 251.496 683.523 251.133 685.286 251.142 687.066 251.129 688.847 251.493 690.61 252.209 692.241 252.875 693.82 253.841 695.255 255.053 696.467 256.271 697.671 257.705 698.636 259.279 699.311 260.904 699.995 262.651 700.345 264.414 700.338 266.162 700.358 267.896 700.022 269.51 699.351 271.079 698.684 272.512 697.733 273.736 696.546 274.163 696.113 274.747 695.87 275.356 695.875 275.976 695.869 276.573 696.11 277.015 696.546 277.442 697.006 277.669 697.617 277.647 698.245 277.598 698.927 277.286 699.564 276.778 700.022 276.22 700.59 275.612 701.106 274.961 701.563 274.112 702.186 273.198 702.716 272.235 703.143 271.097 703.674 269.905 704.085 268.68 704.367 264.955 705.211 261.062 704.922 257.502 703.538 255.392 702.664 253.463 701.404 251.814 699.825 246.615 694.651 245.055 686.85 247.864 680.074 248.79 677.958 250.133 676.051 251.814 674.465 253.438 672.796 255.37 671.454 257.502 670.515 259.762 669.538 262.189 669.001 264.651 668.935 265.986 668.945 267.315 669.131 268.601 669.488 269.774 669.826 270.912 670.276 271.998 670.831 272.942 671.302 273.841 671.857 274.684 672.49 275.474 673.083 276.146 673.597 276.62 674.031 276.995 674.418 277.267 674.893 277.41 675.414 277.611 676.06 277.427 676.765 276.936 677.231 276.494 677.666 275.897 677.908 275.277 677.902 274.717 677.929 274.168 677.745 273.736 677.389Z" fill="#032530" transform="matrix(1 0 0 1 416.443 -242.225)"/><path d="M309.523 669.094C311.85 669.089 314.151 669.573 316.278 670.516 318.38 671.487 320.293 672.824 321.926 674.466 323.59 676.096 324.93 678.026 325.876 680.154 326.828 682.347 327.312 684.715 327.298 687.106L327.298 702.906C327.318 703.509 327.089 704.094 326.666 704.525 326.22 704.954 325.626 705.194 325.007 705.197 323.742 705.197 322.716 704.171 322.716 702.906L322.716 698.403C321.012 700.283 319.01 701.871 316.791 703.103 314.53 704.391 311.968 705.059 309.365 705.039 306.986 705.057 304.625 704.614 302.413 703.735 300.315 702.861 298.399 701.602 296.765 700.022 295.077 698.428 293.733 696.506 292.815 694.374 289.89 687.651 291.361 679.825 296.528 674.624 298.174 672.961 300.117 671.622 302.255 670.674 304.553 669.681 307.021 669.144 309.523 669.094ZM296.251 687.066C296.245 688.842 296.594 690.602 297.278 692.241 298.639 695.313 301.086 697.775 304.151 699.153 305.791 699.834 307.55 700.183 309.326 700.18 311.048 700.196 312.755 699.86 314.342 699.193 315.9 698.525 317.32 697.574 318.529 696.388 319.757 695.196 320.737 693.773 321.413 692.201 322.157 690.532 322.572 688.735 322.637 686.908 322.641 685.132 322.292 683.374 321.61 681.734 320.283 678.511 317.723 675.951 314.5 674.624 311.187 673.254 307.465 673.254 304.151 674.624 302.595 675.31 301.176 676.273 299.964 677.468 298.744 678.696 297.766 680.143 297.081 681.734 296.446 683.437 296.164 685.251 296.251 687.066Z" fill="#032530" transform="matrix(1 0 0 1 416.443 -242.225)"/><path d="M341.716 659.337C341.71 658.717 341.952 658.12 342.388 657.678 343.282 656.784 344.732 656.784 345.627 657.678 346.062 658.12 346.304 658.717 346.298 659.337L346.298 668.778 362.651 668.778C363.346 668.751 364.024 668.992 364.547 669.449 365.009 669.876 365.268 670.479 365.258 671.108 365.267 671.725 365.007 672.316 364.547 672.728 364.024 673.185 363.346 673.425 362.651 673.399L346.298 673.399 346.298 687.066C346.292 688.842 346.641 690.602 347.325 692.241 348.733 695.349 351.256 697.815 354.396 699.153 356.035 699.837 357.794 700.186 359.57 700.18 361.318 700.2 363.052 699.864 364.666 699.193 366.216 698.535 367.625 697.582 368.813 696.388 369.205 695.963 369.739 695.696 370.314 695.638 370.934 695.552 371.562 695.723 372.052 696.112 372.461 696.5 372.725 697.015 372.803 697.573 372.925 698.164 372.797 698.779 372.447 699.272 370.809 700.961 368.848 702.304 366.68 703.222 364.43 704.169 362.012 704.653 359.57 704.644 354.825 704.687 350.265 702.806 346.93 699.43 343.595 696.068 341.721 691.525 341.716 686.789Z" fill="#032530" transform="matrix(1 0 0 1 416.443 -242.225)"/><path d="M384.811 661.036C384.808 659.356 386.168 657.992 387.848 657.99 388.647 657.989 389.415 658.302 389.985 658.863 391.174 660.019 391.201 661.919 390.046 663.108 390.026 663.128 390.006 663.149 389.985 663.169 388.788 664.347 386.862 664.331 385.684 663.134 385.133 662.573 384.82 661.821 384.811 661.036ZM385.561 671.306C385.542 670.702 385.77 670.117 386.193 669.686 386.635 669.25 387.232 669.009 387.852 669.015 389.118 669.015 390.143 670.04 390.143 671.306L390.143 702.629C390.147 703.238 389.905 703.822 389.472 704.249 389.056 704.699 388.464 704.944 387.852 704.92 387.228 704.945 386.624 704.701 386.193 704.249 385.77 703.818 385.542 703.233 385.561 702.629Z" fill="#032530" transform="matrix(1 0 0 1 416.443 -242.225)"/><path d="M422.178 669.094C424.517 669.084 426.833 669.569 428.972 670.516 431.074 671.487 432.987 672.824 434.62 674.466 436.284 676.096 437.624 678.026 438.57 680.154 439.522 682.347 440.006 684.715 439.992 687.106 440 689.466 439.53 691.804 438.61 693.979 437.657 696.092 436.318 698.007 434.66 699.627 431.336 703.048 426.75 704.948 421.98 704.881 419.601 704.899 417.24 704.456 415.028 703.577 412.93 702.703 411.014 701.444 409.38 699.864 407.692 698.27 406.348 696.348 405.43 694.216 404.467 691.97 403.983 689.549 404.008 687.106 403.981 684.73 404.452 682.376 405.39 680.193 406.27 678.1 407.544 676.196 409.143 674.584 410.789 672.922 412.732 671.582 414.87 670.634 417.181 669.645 419.664 669.122 422.178 669.094ZM408.787 687.066C408.781 688.842 409.13 690.602 409.814 692.241 411.19 695.408 413.717 697.935 416.885 699.311 418.524 699.995 420.283 700.344 422.059 700.338 423.835 700.341 425.594 699.992 427.234 699.311 428.815 698.626 430.26 697.663 431.5 696.467 432.686 695.234 433.649 693.804 434.344 692.241 435.028 690.602 435.377 688.842 435.371 687.066 435.374 685.29 435.025 683.531 434.344 681.892 433.017 678.669 430.457 676.109 427.234 674.781 425.594 674.1 423.835 673.751 422.059 673.755 420.283 673.748 418.524 674.097 416.885 674.781 415.328 675.468 413.909 676.431 412.698 677.626 411.477 678.854 410.499 680.301 409.814 681.892 409.133 683.531 408.784 685.29 408.787 687.066Z" fill="#032530" transform="matrix(1 0 0 1 416.443 -242.225)"/><path d="M453.976 686.79C453.945 684.401 454.416 682.033 455.358 679.838 457.16 675.561 460.562 672.159 464.838 670.358 469.279 668.461 474.302 668.461 478.742 670.358 480.865 671.312 482.794 672.651 484.43 674.308 486.099 675.933 487.44 677.864 488.38 679.996 489.335 682.188 489.819 684.556 489.802 686.948L489.802 702.748C489.806 703.356 489.564 703.94 489.131 704.367 488.258 705.284 486.808 705.319 485.892 704.447 485.427 704.005 485.17 703.389 485.181 702.748L485.181 686.948C485.189 683.42 483.763 680.041 481.231 677.586 477.448 673.737 471.69 672.608 466.734 674.742 465.15 675.399 463.713 676.366 462.508 677.586 461.292 678.795 460.325 680.231 459.664 681.813 458.961 683.432 458.611 685.183 458.637 686.948L458.637 702.748C458.641 703.356 458.399 703.94 457.965 704.367 457.549 704.817 456.958 705.063 456.346 705.039 455.722 705.064 455.117 704.819 454.687 704.367 454.264 703.936 454.035 703.351 454.055 702.748Z" fill="#032530" transform="matrix(1 0 0 1 416.443 -242.225)"/></g></svg>